D:\school\WTK\thesis\model\3dpredictsim\Results\batch_windlass\Pog_s1_tmt_aCst_d00_k800_WL30_ig24_act_TTC_GRF.mot
nRows=17
nColumns=19

name D:\school\WTK\thesis\model\3dpredictsim\Results\batch_windlass\Pog_s1_tmt_aCst_d00_k800_WL30_ig24_act_TTC_GRF.mot
datacolumns 19
datarows 17
range 0.6151318005 0.8119739767
endheader
time 	ground_force_vx	ground_force_vy	ground_force_vz	ground_force_px	ground_force_py	ground_force_pz	1_ground_force_vx	1_ground_force_vy	1_ground_force_vz	1_ground_force_px	1_ground_force_py	1_ground_force_pz	ground_torque_x	ground_torque_y	ground_torque_z	1_ground_torque_x	1_ground_torque_y	1_ground_torque_z
        0.6151318005	       69.4835614083	      316.6667712961	        4.7507527136	        0.3966376522	        0.0000000000	        0.0295419801	      -65.3963565663	       53.1732429353	      -15.8996447436	        0.9379434654	        0.0000000000	       -0.0596784102	        0.0000000000	        0.0000000000	        0.0000000000	        0.0000000000	        0.0000000000	        0.0000000000	
        0.6274344365	       40.7465525409	      225.8810503588	       14.3152864782	        0.4081958271	        0.0000000000	        0.0239170423	     -140.1033378226	      149.2550939457	      -50.3002926152	        0.9487131236	        0.0000000000	       -0.0586313621	        0.0000000000	        0.0000000000	        0.0000000000	        0.0000000000	        0.0000000000	        0.0000000000	
        0.6397370726	       31.0132201014	      188.4397337594	       13.6017162865	        0.4090491993	        0.0000000000	        0.0232661671	      -86.3766661993	      412.7129989307	       -6.7107793640	        0.9646391726	        0.0000000000	       -0.0590840032	        0.0000000000	        0.0000000000	        0.0000000000	        0.0000000000	        0.0000000000	        0.0000000000	
        0.6520397086	       25.8723218475	      135.3926279999	       16.2444779554	        0.4093928786	        0.0000000000	        0.0235985994	     -110.5978976102	      724.6870507510	       20.0154491565	        0.9757206512	        0.0000000000	       -0.0606768129	        0.0000000000	        0.0000000000	        0.0000000000	        0.0000000000	        0.0000000000	        0.0000000000	
        0.6643423446	       12.2533720023	       72.9604403075	       14.2815169997	        0.4093632632	        0.0000000000	        0.0239172240	     -149.8081805206	      905.7837567397	       27.0014486904	        0.9837225231	        0.0000000000	       -0.0612055366	        0.0000000000	        0.0000000000	        0.0000000000	        0.0000000000	        0.0000000000	        0.0000000000	
        0.6766449806	       -4.5904339855	       14.2051030150	        2.7099908589	        0.4061438876	        0.0000000000	        0.0232204601	     -178.8778790549	      983.4383346412	       27.9025848897	        0.9940944298	        0.0000000000	       -0.0603707090	        0.0000000000	        0.0000000000	        0.0000000000	        0.0000000000	        0.0000000000	        0.0000000000	
        0.6889476166	        0.1369070953	       -0.1211641265	        0.0082675038	        0.0000000000	        0.0000000000	        0.0000000000	     -168.9792691446	      967.9751623117	       28.5639052713	        1.0024777888	        0.0000000000	       -0.0592928432	        0.0000000000	        0.0000000000	        0.0000000000	        0.0000000000	        0.0000000000	        0.0000000000	
        0.7012502526	       -0.6513335150	        0.4438647889	       -0.0827364167	        0.0000000000	        0.0000000000	        0.0000000000	     -144.7182235616	      883.1406079482	       25.8937182915	        1.0076555662	        0.0000000000	       -0.0584898800	        0.0000000000	        0.0000000000	        0.0000000000	        0.0000000000	        0.0000000000	        0.0000000000	
        0.7135528886	       -2.6127256279	        1.5801310732	       -0.3057577109	        0.0000000000	        0.0000000000	        0.0000000000	     -123.0811694408	      798.2572733573	       21.5435517208	        1.0111660327	        0.0000000000	       -0.0580533108	        0.0000000000	        0.0000000000	        0.0000000000	        0.0000000000	        0.0000000000	        0.0000000000	
        0.7258555246	       -0.7389079907	        0.4159118131	       -0.0775603007	        0.0000000000	        0.0000000000	        0.0000000000	     -104.7444329683	      738.2885377758	       19.8895386086	        1.0143596021	        0.0000000000	       -0.0577759005	        0.0000000000	        0.0000000000	        0.0000000000	        0.0000000000	        0.0000000000	        0.0000000000	
        0.7381581606	       -0.4122265160	        0.2208972056	       -0.0379139743	        0.0000000000	        0.0000000000	        0.0000000000	      -89.2845310022	      692.7995568776	       19.6688895483	        1.0174793556	        0.0000000000	       -0.0575811779	        0.0000000000	        0.0000000000	        0.0000000000	        0.0000000000	        0.0000000000	        0.0000000000	
        0.7504607967	       -0.2822806916	        0.1479682233	       -0.0222843520	        0.0000000000	        0.0000000000	        0.0000000000	      -76.4743725721	      655.9368727462	       19.8524140903	        1.0206712719	        0.0000000000	       -0.0574343877	        0.0000000000	        0.0000000000	        0.0000000000	        0.0000000000	        0.0000000000	        0.0000000000	
        0.7627634327	       -0.1483556401	        0.0764031113	       -0.0099167591	        0.0000000000	        0.0000000000	        0.0000000000	      -65.4381068101	      629.8103382983	       20.2267147546	        1.0240168928	        0.0000000000	       -0.0573084880	        0.0000000000	        0.0000000000	        0.0000000000	        0.0000000000	        0.0000000000	        0.0000000000	
        0.7750660687	       -0.0835901258	        0.0415010855	       -0.0053113151	        0.0000000000	        0.0000000000	        0.0000000000	      -55.7581902466	      610.7600339581	       20.4231851150	        1.0276999706	        0.0000000000	       -0.0571552530	        0.0000000000	        0.0000000000	        0.0000000000	        0.0000000000	        0.0000000000	        0.0000000000	
        0.7873687047	       -0.0577533316	        0.0275431009	       -0.0035964748	        0.0000000000	        0.0000000000	        0.0000000000	      -47.2807502683	      597.4025459994	       20.6220754195	        1.0320921455	        0.0000000000	       -0.0569068640	        0.0000000000	        0.0000000000	        0.0000000000	        0.0000000000	        0.0000000000	        0.0000000000	
        0.7996713407	       -0.0496792292	        0.0227960692	       -0.0030926147	        0.0000000000	        0.0000000000	        0.0000000000	      -42.1876899449	      589.1780320014	       20.7769075335	        1.0370119702	        0.0000000000	       -0.0565375382	        0.0000000000	        0.0000000000	        0.0000000000	        0.0000000000	        0.0000000000	        0.0000000000	
        0.8119739767	       -0.0524476967	        0.0232702232	       -0.0032251769	        0.0000000000	        0.0000000000	        0.0000000000	      -37.3515292042	      584.4954440099	       20.7170700817	        1.0422416439	        0.0000000000	       -0.0560744470	        0.0000000000	        0.0000000000	        0.0000000000	        0.0000000000	        0.0000000000	        0.0000000000	
